/* XPM */
static char * go_xpm[] = {
/* Copyright (C) 1997 Mark Donohoe & Jonathan Buzzard. Licensed under the terms of the GNU library General Public License */
"32 32 7 1",
" 	c None",
".	c #666666",
"X	c #999999",
"o	c white",
"O	c #cccccc",
"+	c black",
"@	c #333333",
"                                ",
"                                ",
"                      ..        ",
"                  .. .Xo. ..    ",
"                 .OO..XoO.Oo.   ",
"                 +.OoooooooO... ",
"                 ...ooO++oo..oo.",
"            X.  .ooooO.+++ooooO.",
"       ... .oo. @@.ooo...OooO..@",
"      .Ooo..ooXX.ooXoooooooo.@@@",
"   .. .ooooooooOoo..ooooooooo.@ ",
"  .Oo...oooooooooX..X@oooX@oo@  ",
"  .oooooooooooooooXXoo.oO.+++@  ",
"  @.oooooooooooooooooX@XX.+++@  ",
" .@.Ooooooo.@+ooooooo.@@+. ++   ",
".Oooooooooo++++ooooooooX..      ",
".oooooooooo+..+ooooooooo.       ",
"+++.ooooooooOOoooooo.++X.       ",
"+++.oooooooooooooooo.++@.       ",
" +.oooooooooooooooooo..@        ",
" .ooooooooooooooooooooo.        ",
".+ooX+Ooooooooooooo..oo.        ",
".+.X.++ooooooooooo.++...        ",
".+++@.OoooOoooooooo@++.@        ",
".++@@XooOX+ooo..oooo@.@         ",
" @@@ XooX.+ooo+++oo@@           ",
"     +++@...XX.@++@.@           ",
"     +++@@ +++@ ++..@           ",
"     +++@  +++@  +++            ",
"      +@   +++@                 ",
"            +@                  ",
"                                "};
